<?xml version="1.0" standalone="no"?>
<!DOCTYPE svg PUBLIC "-//W3C//DTD SVG 20010904//EN"
 "http://www.w3.org/TR/2001/REC-SVG-20010904/DTD/svg10.dtd">
<svg version="1.0" xmlns="http://www.w3.org/2000/svg"
 width="768.000000pt" height="768.000000pt" viewBox="0 0 768.000000 768.000000"
 preserveAspectRatio="xMidYMid meet">
<metadata>
Created by potrace 1.14, written by Peter Selinger 2001-2017
</metadata>
<g transform="translate(0.000000,768.000000) scale(0.100000,-0.100000)"
fill="#000000" stroke="none">
<path d="M4578 4720 c-2 -5 -12 -11 -23 -13 -11 -1 -24 -5 -30 -8 -5 -3 -32
-12 -60 -19 -27 -7 -55 -17 -60 -21 -6 -4 -22 -9 -35 -11 -14 -2 -29 -6 -35
-9 -5 -3 -17 -5 -25 -4 -8 0 -17 -2 -20 -6 -5 -6 -246 -81 -270 -83 -8 -1 -25
-7 -38 -14 -12 -7 -27 -10 -32 -7 -6 3 -10 1 -10 -6 0 -7 -3 -10 -6 -6 -3 3
-25 -1 -47 -10 -23 -8 -51 -17 -62 -19 -11 -3 -27 -7 -35 -9 -8 -2 -16 -4 -17
-5 -2 -2 -6 -3 -10 -4 -5 -2 -28 -9 -53 -16 -25 -7 -48 -14 -52 -16 -5 -1 -11
-3 -15 -4 -5 -2 -12 -4 -18 -5 -5 -1 -17 -5 -25 -8 -40 -15 -157 -50 -177 -52
-12 -2 -28 -7 -35 -11 -13 -9 -15 -9 -59 -18 -15 -3 -43 -13 -63 -21 -20 -8
-39 -15 -43 -15 -5 0 -26 -6 -48 -12 -22 -6 -44 -13 -50 -14 -5 -2 -35 -10
-65 -19 -30 -9 -76 -23 -102 -30 -25 -7 -56 -18 -67 -25 -12 -6 -21 -8 -21 -6
0 3 -19 -1 -41 -10 -42 -14 -83 -25 -106 -26 -7 -1 -13 -5 -13 -9 0 -4 -17
-10 -37 -15 -21 -4 -40 -8 -43 -9 -3 -1 -44 -14 -92 -29 -48 -15 -96 -29 -107
-31 -11 -2 -30 -9 -43 -16 -13 -7 -24 -12 -25 -11 -2 1 -5 1 -8 1 -3 -1 -8 -2
-12 -3 -5 -1 -29 -8 -56 -15 -41 -12 -47 -17 -41 -35 6 -22 49 -143 66 -186 5
-14 10 -27 10 -30 0 -36 49 -47 96 -22 12 7 22 11 22 8 0 -2 29 6 65 19 36 13
68 24 70 24 10 1 120 32 145 42 14 5 35 11 48 14 13 2 36 11 53 19 16 8 27 11
24 7 -2 -5 17 -1 43 8 26 9 49 19 50 24 2 4 8 5 13 1 5 -3 24 2 41 10 23 12
34 13 39 5 5 -8 8 -8 10 0 2 6 13 13 24 15 11 3 40 12 64 20 24 9 47 14 51 11
5 -3 15 2 24 11 9 8 19 13 24 10 4 -2 14 -1 22 4 9 5 20 4 28 -2 10 -9 12 -8
10 2 -2 9 11 18 37 25 22 5 46 14 53 18 7 5 12 4 12 -3 0 -6 4 -9 8 -6 8 5 38
-62 34 -76 -1 -5 3 -8 9 -8 5 0 7 -4 4 -10 -3 -5 -2 -10 4 -10 6 0 13 -16 17
-35 3 -19 10 -35 14 -35 4 0 11 -12 15 -27 6 -27 12 -42 53 -133 11 -25 25
-64 32 -87 7 -24 17 -43 22 -43 4 0 8 -5 8 -11 0 -5 9 -31 21 -57 11 -26 24
-56 28 -67 5 -11 21 -49 36 -85 15 -36 36 -85 47 -110 11 -25 26 -61 33 -80
12 -33 24 -60 81 -188 13 -29 24 -56 24 -60 1 -4 9 -25 20 -47 11 -22 19 -47
20 -56 0 -9 7 -22 15 -29 9 -7 13 -15 11 -18 -3 -3 1 -17 8 -31 26 -49 76
-171 76 -185 0 -8 5 -16 10 -18 6 -2 12 -13 14 -25 3 -12 12 -38 20 -58 9 -19
23 -52 32 -72 9 -21 24 -55 35 -75 10 -21 17 -38 14 -38 -2 0 7 -24 20 -52 25
-57 57 -130 60 -138 1 -3 7 -18 13 -33 7 -15 15 -39 18 -52 6 -26 33 -27 89
-4 17 7 37 13 45 15 8 2 77 24 153 49 76 25 142 45 147 45 5 0 21 5 37 12 15
6 35 13 43 14 8 1 29 7 45 14 17 7 37 14 45 16 28 5 125 35 145 45 11 5 29 11
40 13 11 3 60 18 109 35 49 16 91 30 95 29 3 -1 19 4 35 11 16 6 36 13 45 14
9 1 21 5 26 9 6 3 26 9 45 14 45 10 40 9 75 23 17 7 35 14 40 15 6 2 30 8 55
15 25 8 51 14 58 15 35 6 34 25 -4 103 -21 43 -38 80 -39 83 -1 3 -21 45 -44
95 -23 49 -43 94 -44 100 -1 5 -4 12 -7 15 -3 3 -16 30 -30 60 -13 30 -33 67
-43 83 -10 15 -16 27 -13 27 3 0 -11 31 -30 70 -18 38 -34 72 -34 74 0 3 -18
42 -40 87 -22 45 -40 88 -40 96 0 7 -5 13 -11 13 -5 0 -7 5 -4 10 3 6 1 10 -4
10 -6 0 -11 5 -11 11 0 7 -21 55 -47 108 -26 53 -48 99 -49 104 -1 4 -3 10 -4
15 -1 4 -2 10 -1 15 0 4 -4 7 -9 7 -6 0 -10 4 -10 9 0 6 -34 80 -75 166 -41
85 -75 158 -75 161 0 3 -9 19 -21 35 -11 16 -18 29 -14 29 3 0 -1 12 -9 28
-17 31 -81 162 -86 177 -25 74 -62 126 -75 106 -5 -9 -57 -27 -107 -36 -9 -2
-26 -9 -38 -15 -12 -7 -31 -10 -41 -7 -10 3 -17 2 -14 -3 2 -4 -17 -13 -43
-20 -26 -6 -54 -15 -62 -18 -8 -3 -19 -7 -25 -7 -5 -1 -18 -5 -27 -9 -9 -4
-25 -9 -35 -11 -10 -2 -18 -4 -18 -5 0 -2 -37 -11 -52 -12 -7 -1 -15 -8 -17
-15 -4 -10 -11 -11 -25 -4 -14 8 -20 8 -23 0 -2 -6 -16 -12 -31 -12 -15 -1
-27 -6 -27 -11 0 -4 -9 -6 -20 -3 -11 3 -20 1 -20 -3 0 -8 -52 -24 -65 -20 -3
1 -16 -5 -29 -14 -18 -11 -26 -12 -36 -3 -10 9 -11 9 -6 0 6 -12 -18 -19 -46
-14 -5 0 -8 -4 -8 -10 0 -5 -4 -8 -9 -4 -5 3 -13 1 -16 -5 -5 -8 -12 -7 -23 2
-10 7 -14 9 -10 4 4 -5 0 -15 -8 -24 -9 -8 -12 -18 -7 -21 15 -11 34 -52 28
-61 -4 -6 -2 -10 2 -10 5 0 17 -19 27 -42 9 -24 25 -56 34 -73 9 -16 16 -32
15 -35 -1 -5 9 -28 57 -135 13 -27 24 -55 25 -60 2 -6 13 -33 26 -60 13 -28
22 -53 21 -57 -1 -5 3 -8 8 -8 5 0 9 -3 8 -7 -2 -10 14 -49 49 -123 14 -30 26
-61 26 -67 0 -7 4 -13 9 -13 4 0 8 -5 8 -11 0 -10 19 -54 60 -144 10 -22 28
-62 38 -90 23 -59 78 -182 92 -207 6 -10 10 -24 10 -32 0 -7 9 -24 19 -37 16
-20 22 -22 42 -12 26 12 111 41 144 48 111 25 110 23 71 110 -43 93 -49 110
-48 118 1 4 -2 7 -8 7 -6 0 -9 3 -8 8 2 7 -18 57 -33 82 -5 8 -12 22 -15 30
-3 8 -19 43 -34 76 -16 34 -32 73 -36 88 -3 14 -10 26 -15 26 -5 0 -9 7 -9 15
0 8 -4 23 -9 33 -15 27 -57 116 -61 127 -1 6 -14 35 -27 65 -41 91 -46 105
-45 113 1 4 -3 7 -10 7 -6 0 -9 3 -6 6 4 3 -9 37 -28 74 -19 38 -34 74 -34 79
0 7 36 21 70 26 3 0 10 3 16 7 6 4 21 9 35 12 13 2 38 9 54 16 17 6 31 11 33
11 1 -1 3 -1 5 0 1 0 10 2 19 4 9 2 31 10 48 18 21 11 30 12 30 4 0 -8 3 -9 8
-1 15 22 38 22 52 1 8 -12 13 -25 12 -29 -1 -5 3 -8 9 -8 6 0 9 -9 6 -19 -3
-11 1 -22 8 -25 7 -2 19 -22 26 -43 7 -21 20 -53 31 -71 10 -18 18 -37 18 -43
0 -6 9 -24 21 -40 11 -16 18 -29 15 -29 -3 0 15 -41 40 -90 24 -50 44 -93 44
-96 0 -3 19 -45 41 -93 23 -47 53 -111 67 -141 13 -30 42 -92 63 -137 21 -46
35 -83 31 -83 -4 0 -2 -4 3 -8 13 -9 61 -113 57 -124 -1 -4 2 -8 8 -8 5 0 10
-9 10 -20 0 -11 4 -20 8 -20 8 0 37 -71 33 -79 -2 -2 1 -7 6 -10 10 -7 43 -74
43 -88 0 -5 -10 -14 -22 -20 -29 -13 -141 -48 -148 -47 -3 1 -27 -7 -55 -18
-27 -11 -52 -19 -55 -19 -4 1 -52 -13 -120 -35 -8 -3 -15 -4 -16 -2 0 2 -8 -3
-17 -11 -10 -7 -17 -11 -17 -8 0 4 -19 -1 -42 -9 -24 -9 -50 -17 -58 -19 -8
-1 -58 -17 -112 -34 -143 -47 -144 -47 -153 -4 -3 18 -24 67 -91 211 -19 40
-34 77 -34 83 0 5 -4 17 -10 27 -5 9 -26 53 -46 97 -19 44 -41 93 -49 110 -7
16 -11 33 -9 37 3 4 0 8 -5 8 -6 0 -11 4 -11 9 0 5 -10 31 -22 58 -12 26 -22
50 -23 53 0 3 -6 15 -13 26 -6 12 -8 24 -5 28 3 3 1 6 -5 6 -7 0 -12 8 -12 18
0 10 -4 22 -9 27 -5 6 -18 37 -31 70 -12 33 -26 62 -31 65 -5 4 -10 18 -11 33
-1 15 -6 27 -10 27 -3 0 -10 10 -14 23 -7 24 -15 42 -89 211 -27 60 -48 115
-48 122 0 7 -4 11 -9 8 -4 -3 -8 1 -8 9 0 8 -7 27 -14 43 -8 15 -13 31 -10 36
3 4 1 8 -4 8 -5 0 -13 10 -17 23 -4 12 -8 24 -9 27 -1 3 -7 14 -13 25 -6 11
-13 29 -14 40 -2 11 -7 22 -10 25 -15 12 -70 143 -65 156 3 7 18 16 33 19 15
3 49 14 76 25 32 12 47 15 47 7 0 -9 2 -9 8 0 4 6 19 14 32 17 14 2 45 12 69
20 48 18 86 27 114 29 9 1 17 5 17 9 0 4 8 8 18 8 10 0 22 4 28 9 5 6 23 12
39 15 17 2 31 5 33 6 1 2 5 3 10 5 4 1 15 5 24 9 10 4 23 6 30 4 7 -3 19 2 27
9 7 8 20 12 27 9 8 -3 14 -1 14 5 0 6 7 9 15 6 8 -4 17 -2 20 4 4 5 10 7 15 4
4 -3 13 2 20 10 6 7 17 12 24 9 7 -3 26 1 42 7 16 7 37 14 46 15 10 2 23 5 30
6 7 2 16 6 19 11 3 4 20 9 37 10 18 1 32 6 32 11 0 4 9 6 20 3 11 -3 23 -1 26
5 3 5 11 7 18 5 6 -3 16 1 23 8 9 10 6 25 -13 65 -13 28 -24 58 -24 66 0 8 -4
14 -10 14 -5 0 -10 5 -10 10 0 15 -42 103 -56 117 -7 7 -14 9 -16 3z"/>
<path d="M4186 4158 c3 -5 10 -6 15 -3 13 9 11 12 -6 12 -8 0 -12 -4 -9 -9z"/>
<path d="M3285 3817 c-8 -4 -19 -6 -24 -2 -5 3 -11 1 -13 -4 -1 -6 -15 -12
-30 -15 -14 -2 -36 -9 -47 -16 -12 -6 -21 -9 -21 -6 0 3 -31 -6 -70 -19 -38
-13 -70 -22 -70 -19 0 2 -13 -2 -30 -11 -16 -9 -30 -13 -30 -11 0 3 -25 -4
-56 -14 -31 -11 -60 -17 -65 -14 -5 3 -9 0 -9 -7 0 -7 -3 -9 -7 -6 -3 4 -12 2
-20 -4 -7 -6 -13 -8 -13 -4 0 4 -7 2 -15 -5 -8 -7 -15 -9 -15 -5 0 4 -7 2 -15
-5 -8 -7 -15 -10 -15 -6 0 3 -15 0 -34 -8 -19 -8 -37 -12 -40 -8 -3 3 -6 0 -6
-7 0 -7 -4 -10 -9 -7 -5 3 -34 -3 -65 -14 -31 -10 -56 -16 -56 -13 0 3 -6 0
-14 -6 -8 -6 -18 -11 -22 -10 -5 1 -24 -4 -42 -11 -35 -13 -36 -23 -6 -82 8
-15 15 -35 17 -45 2 -10 8 -27 14 -38 14 -27 48 -128 45 -137 -1 -5 3 -8 8 -8
5 0 9 -3 8 -7 0 -5 2 -17 7 -28 4 -11 21 -56 37 -100 50 -136 70 -189 84 -222
8 -17 14 -36 14 -42 0 -6 4 -19 10 -29 5 -9 26 -62 45 -117 20 -55 43 -112 51
-127 8 -15 14 -30 13 -33 0 -3 4 -18 9 -33 6 -15 27 -72 47 -127 21 -55 43
-114 51 -132 8 -17 14 -38 14 -46 0 -9 5 -19 10 -22 6 -3 10 -14 10 -23 0 -9
7 -30 15 -46 8 -15 15 -37 15 -47 0 -11 4 -19 9 -19 5 0 12 -15 16 -32 4 -18
9 -37 11 -43 9 -30 144 -378 148 -382 2 -3 14 1 26 7 12 6 24 9 27 6 3 -3 18
1 34 10 16 8 29 12 29 8 0 -4 6 -2 13 3 11 10 75 33 100 37 10 1 195 59 237
74 8 3 18 4 23 4 4 -1 7 2 7 6 0 5 6 9 13 10 23 1 56 11 76 22 12 6 21 8 21 5
0 -2 17 2 38 9 20 8 75 26 122 41 47 14 92 29 100 32 19 8 40 13 63 15 9 1 17
6 17 10 0 4 3 7 8 6 4 -1 17 2 30 6 26 9 25 19 -10 96 -11 25 -23 54 -28 65
-18 48 -54 131 -59 137 -4 4 -19 1 -36 -7 -16 -7 -52 -20 -80 -29 -211 -64
-322 -100 -332 -109 -7 -5 -13 -7 -13 -3 0 3 -17 -1 -37 -9 -21 -8 -50 -16
-65 -19 -14 -2 -36 -10 -49 -17 -12 -6 -37 -14 -55 -16 -31 -4 -33 -2 -40 31
-3 20 -10 36 -15 36 -5 0 -9 8 -9 18 0 10 -9 37 -20 60 -11 22 -20 47 -20 55
0 7 -4 17 -10 23 -5 5 -11 18 -13 29 -2 11 -11 38 -20 59 -10 21 -24 57 -31
80 -15 42 -40 105 -56 141 -5 11 -16 40 -24 65 -8 25 -21 61 -29 80 -8 19 -22
54 -31 78 -31 81 -49 127 -62 159 -8 17 -14 36 -14 43 0 7 -6 24 -14 38 -13
24 -39 89 -42 102 -2 11 -16 46 -26 64 -5 10 -11 26 -13 35 -2 9 -9 30 -16 46
-6 17 -13 35 -15 40 -1 6 -9 27 -18 48 -13 29 -14 38 -4 41 31 10 104 27 116
28 6 1 12 4 12 7 0 4 11 8 25 9 14 1 38 8 53 15 15 7 34 13 42 12 8 -1 26 5
39 13 12 7 32 12 42 9 10 -3 17 -1 13 4 -3 5 2 9 10 9 8 0 18 -10 21 -22 4
-13 15 -42 26 -65 10 -24 19 -49 19 -56 0 -7 5 -18 11 -24 6 -6 12 -17 13 -24
4 -20 41 -115 77 -196 11 -24 19 -47 19 -53 0 -6 4 -18 10 -28 17 -31 43 -97
45 -114 1 -10 7 -23 12 -30 5 -7 20 -42 33 -78 13 -36 27 -69 32 -75 4 -5 8
-15 8 -22 0 -7 11 -37 25 -67 14 -30 25 -58 25 -61 0 -3 8 -25 19 -48 10 -23
21 -50 24 -59 7 -19 29 -17 105 9 26 8 54 17 62 18 8 2 16 4 18 5 1 2 5 3 10
5 4 1 19 5 33 9 14 4 34 9 45 10 25 4 22 33 -11 102 -14 29 -25 57 -25 62 0 4
-11 32 -25 60 -14 29 -25 57 -25 62 0 6 -7 22 -16 35 -9 13 -13 29 -9 35 3 5
3 10 -2 10 -4 0 -19 28 -32 63 -31 80 -59 144 -79 182 -9 17 -15 31 -14 33 2
2 2 4 -3 20 -1 4 -12 30 -24 57 -13 28 -24 55 -25 60 -1 6 -14 36 -29 68 -15
32 -27 60 -27 63 0 2 -7 21 -16 42 -10 20 -19 46 -21 57 -2 11 -8 22 -13 23
-6 2 -10 12 -10 21 0 10 -3 21 -7 25 -5 4 -8 11 -9 14 0 4 -9 25 -19 47 -20
46 -32 76 -35 90 -1 6 -8 21 -15 35 -7 14 -16 33 -19 42 -5 17 -35 20 -61 5z"/>
</g>
</svg>
